# Blender 4.1.1
# www.blender.org
mtllib road.mtl
o Cube
v 10.000000 0.100000 -10.000000
v 10.000000 -0.100000 -10.000000
v 10.000000 0.100000 10.000000
v 10.000000 -0.100000 10.000000
v -10.000000 0.100000 -10.000000
v -10.000000 -0.100000 -10.000000
v -10.000000 0.100000 10.000000
v -10.000000 -0.100000 10.000000
v -16.000002 -0.100000 10.000000
v -16.000002 0.700000 10.000000
v -16.000002 -0.100000 -10.000000
v -16.000002 0.700000 -10.000000
v -10.000000 -0.100000 10.000000
v -10.000000 0.700000 10.000000
v -10.000000 -0.100000 -10.000000
v -10.000000 0.700000 -10.000000
v 10.000000 -0.100000 10.000000
v 10.000000 0.700000 10.000000
v 10.000000 -0.100000 -10.000000
v 10.000000 0.700000 -10.000000
v 16.000002 -0.100000 10.000000
v 16.000002 0.700000 10.000000
v 16.000002 -0.100000 -10.000000
v 16.000002 0.700000 -10.000000
v 10.000000 0.700000 10.000000
v 10.000000 -0.100000 10.000000
v 10.000000 0.700000 -10.000000
v 16.000002 -0.100000 10.000000
v 16.000002 0.700000 10.000000
v 16.000002 -0.100000 -10.000000
v 16.000002 0.700000 -10.000000
v 10.000000 0.700000 10.000000
v 16.000002 -0.100000 10.000000
v 10.000000 0.700000 10.000000
vn -0.0000 1.0000 -0.0000
vn -0.0000 -0.0000 1.0000
vn -1.0000 -0.0000 -0.0000
vn -0.0000 -1.0000 -0.0000
vn 1.0000 -0.0000 -0.0000
vn -0.0000 -0.0000 -1.0000
vt 0.875000 0.500000
vt 0.625000 0.750000
vt 0.625000 0.500000
vt 0.375000 1.000000
vt 0.375000 0.750000
vt 0.625000 0.000000
vt 0.375000 0.250000
vt 0.375000 0.000000
vt 0.375000 0.500000
vt 0.125000 0.750000
vt 0.125000 0.500000
vt 0.625000 0.250000
vt 0.000000 0.000000
vt 0.875000 0.750000
vt 0.625000 1.000000
s 0
usemtl Material.001
f 5/1/1 3/2/1 1/3/1
f 3/2/2 8/4/2 4/5/2
f 7/6/3 6/7/3 8/8/3
f 2/9/4 8/10/4 6/11/4
f 1/3/5 4/5/5 2/9/5
f 5/12/6 2/9/6 6/7/6
f 10/6/3 11/7/3 9/8/3
f 12/12/6 15/9/6 11/7/6
f 16/3/5 13/5/5 15/9/5
f 14/2/2 9/4/2 13/5/2
f 15/9/4 9/10/4 11/11/4
f 12/1/1 14/2/1 16/3/1
f 18/6/3 19/7/3 17/8/3
f 20/12/6 23/9/6 19/7/6
f 17/4/1 28/5/1 26/4/1
f 22/2/2 17/4/2 21/5/2
f 23/9/4 17/10/4 19/11/4
f 20/1/1 22/2/1 24/3/1
f 31/3/5 28/5/5 30/9/5
f 24/3/1 29/2/1 31/3/1
f 23/9/1 31/3/1 30/9/1
f 22/2/1 28/5/1 29/2/1
f 21/5/1 30/9/1 28/5/1
f 20/12/1 31/3/1 27/12/1
f 29/2/6 26/4/6 32/13/6
f 29/2/2 3/13/2 26/4/2
f 28/5/6 32/13/6 29/2/6
f 5/1/1 7/14/1 3/2/1
f 3/2/2 7/15/2 8/4/2
f 7/6/3 5/12/3 6/7/3
f 2/9/4 4/5/4 8/10/4
f 1/3/5 3/2/5 4/5/5
f 5/12/6 1/3/6 2/9/6
f 10/6/3 12/12/3 11/7/3
f 12/12/6 16/3/6 15/9/6
f 16/3/5 14/2/5 13/5/5
f 14/2/2 10/15/2 9/4/2
f 15/9/4 13/5/4 9/10/4
f 12/1/1 10/14/1 14/2/1
f 18/6/3 20/12/3 19/7/3
f 20/12/6 24/3/6 23/9/6
f 17/4/1 21/5/1 28/5/1
f 22/2/2 18/15/2 17/4/2
f 23/9/4 21/5/4 17/10/4
f 20/1/1 18/14/1 22/2/1
f 31/3/5 29/2/5 28/5/5
f 24/3/1 22/2/1 29/2/1
f 23/9/1 24/3/1 31/3/1
f 22/2/1 21/5/1 28/5/1
f 21/5/1 23/9/1 30/9/1
f 20/12/1 24/3/1 31/3/1
f 29/2/6 28/5/6 26/4/6
f 29/2/2 32/13/2 3/13/2
l 18 25
l 25 32
l 3 13
l 27 30
l 1 15
l 11 16
l 9 12
l 10 13
l 27 29
l 1 7
l 7 16
l 3 27
l 15 26
l 26 30
l 3 19
l 5 13
l 28 33
l 32 34
l 33 34
